PathFileType	4	(X/Y/Z)	Kaydara																																																																																																																																																																																																																												
DataRate	CameraRate	NumFrames	NumMarkers	Units	OrigDataRate	OrigDataStartFrame	OrigNumFrames																																																																																																																																																																																																																								
60	60	4	74	mm	60	1688	181																																																																																																																																																																																																																								
Frame#	Time	N_lasi			N_rasi			N_rpsi			N_lpsi			N_fneck			N_bneck			N_fhead			N_rhead			N_lhead			N_rshld			N_relbtop			N_relbext			N_relblow			N_rwrext			N_rwrtop			N_rwrlow			N_lshld			N_lelblow			N_lelbtop			N_lwrext			N_lwrtop			N_lwrlow			N_rtopleg			N_ltopleg			N_rkneefr			N_rkneebk			N_rkneeis			N_lkneefr			N_lknssbk			N_lkneeis			N_rankfr			N_rankis			N_rankbk			N_lankfr			N_lankbk			N_lankis			D_lasi			D_rasi			D_lpsi			D_fneck			D_bneck			D_fhead			D_rhead			D_lhead			D_rshld			D_relbtop			D_relbext			D_relblow			D_rwrext			D_rwrtop			D_rwrlow			D_lshld			D_lelbext			D_lelblow			D_lelbtop			D_lwrext			D_lwrtop			D_lwrlow			D_rtopleg			D_ltopleg			D_rkneefr			D_rkneebk			D_rkneeis			D_lkneefr			D_lknssbk			D_lkneeis			D_rankfr			D_rankis			D_rankbk			D_lankfr			D_lankbk			D_lankis			D_rpsi			N_lelbext		
		X1	Y1	Z1	X2	Y2	Z2	X3	Y3	Z3	X4	Y4	Z4	X5	Y5	Z5	X6	Y6	Z6	X7	Y7	Z7	X8	Y8	Z8	X9	Y9	Z9	X10	Y10	Z10	X11	Y11	Z11	X12	Y12	Z12	X13	Y13	Z13	X14	Y14	Z14	X15	Y15	Z15	X16	Y16	Z16	X17	Y17	Z17	X18	Y18	Z18	X19	Y19	Z19	X20	Y20	Z20	X21	Y21	Z21	X22	Y22	Z22	X23	Y23	Z23	X24	Y24	Z24	X25	Y25	Z25	X26	Y26	Z26	X27	Y27	Z27	X28	Y28	Z28	X29	Y29	Z29	X30	Y30	Z30	X31	Y31	Z31	X32	Y32	Z32	X33	Y33	Z33	X34	Y34	Z34	X35	Y35	Z35	X36	Y36	Z36	X37	Y37	Z37	X38	Y38	Z38	X39	Y39	Z39	X40	Y40	Z40	X41	Y41	Z41	X42	Y42	Z42	X43	Y43	Z43	X44	Y44	Z44	X45	Y45	Z45	X46	Y46	Z46	X47	Y47	Z47	X48	Y48	Z48	X49	Y49	Z49	X50	Y50	Z50	X51	Y51	Z51	X52	Y52	Z52	X53	Y53	Z53	X54	Y54	Z54	X55	Y55	Z55	X56	Y56	Z56	X57	Y57	Z57	X58	Y58	Z58	X59	Y59	Z59	X60	Y60	Z60	X61	Y61	Z61	X62	Y62	Z62	X63	Y63	Z63	X64	Y64	Z64	X65	Y65	Z65	X66	Y66	Z66	X67	Y67	Z67	X68	Y68	Z68	X69	Y69	Z69	X70	Y70	Z70	X71	Y71	Z71	X72	Y72	Z72	X73	Y73	Z73	X74	Y74	Z74
																																																																																																																																																																																																																															
68	28.117	-537.84996	1243.18687	-86.68577	-510.30975	1268.67294	-316.88854	-248.4223	1237.7285	-360.99792	-276.45962	1223.28369	-8.16574	-406.45962	1613.28369	-187.16574	-241.47625	1667.10236	-185.8009	-436.15608	1807.10968	-196.29873	-243.72784	1771.50543	-249.87698	-296.34445	1777.80365	-102.74026	-241.77275	1655.17426	-343.23421	-292.88757	1701.0173	-610.93903	-375.23922	1715.36072	-571.72497	-284.77066	1761.47903	-538.19408	-367.35477	2050.06256	-660.14168	-320.47077	2059.62738	-655.01236	-304.34717	2043.51654	-612.00592	-266.94483	1619.31366	5.32229	-283.94836	1608.24905	280.62382	-233.83354	1536.24176	285.66233	-238.07749	1586.2944	599.56097	-280.34176	1601.75812	614.0974	-301.69033	1552.61795	606.61674	-402.08755	1069.36073	-449.4252	-377.96974	1016.67923	39.83182	-428.47496	562.77702	-264.2094	-321.2376	579.21608	-330.67181	-369.49173	565.60699	-169.00532	-381.92253	539.20349	-104.56817	-256.72367	556.21315	-43.1191	-255.81533	547.61818	-192.8813	-295.67938	139.87134	-272.53122	-298.69101	154.53148	-192.75074	-216.56933	141.73741	-216.60812	-332.68047	192.9147	-120.38496	-259.94135	185.91064	-76.98713	-295.94135	164.91064	-160.98713	-459.2067	1037.20253	1742.70508	-424.51019	1057.30797	1456.38275	-260.4895	1131.14037	1744.41498	-415.1799	1570.37338	1593.05954	-273.42213	1587.67899	1600.43076	-427.17552	1793.61969	1600.1767	-274.21661	1724.45282	1523.28156	-284.95564	1717.82043	1677.35779	-328.29372	1565.86746	1434.34723	-407.82566	1463.98148	1148.98949	-447.51492	1501.54297	1201.09962	-349.96555	1516.01318	1190.64354	-452.65087	1750.96405	1166.81435	-395.09846	1755.72922	1155.36842	-385.74341	1738.13889	1206.035	-319.07833	1563.90045	1788.98102	-402.84233	1475.85968	2051.97556	-316.30493	1539.08859	2039.40948	-323.82187	1460.24841	2053.38333	-336.12671	1524.6698	2303.66669	-368.67516	1553.56827	2296.51978	-408.30292	1523.58749	2285.45486	-332.00253	1004.8925	1407.94678	-317.7564	1009.71634	1808.30444	-374.57359	455.45902	1449.84467	-274.75622	490.89668	1422.23282	-282.5321	458.3923	1543.02429	-357.64977	448.3419	1770.71808	-244.90856	485.75176	1786.36932	-316.90058	443.7434	1679.1008	-323.90785	130.25965	1417.66525	-294.9435	126.6167	1482.46735	-243.54788	127.88687	1417.95868	-323.2317	134.99678	1792.31674	-250.31321	124.79984	1806.29364	-293.92193	123.98274	1732.92282	-234.20507	1146.12961	1526.89117	-320.64507	1512.36969	290.52109
69	28.133	-537.65903	1243.18787	-86.15773	-510.34618	1268.3654	-316.46133	-248.20683	1237.13806	-360.83324	-276.2253	1223.07175	-7.93856	-406.2253	1613.07175	-186.93856	-240.99047	1666.74744	-185.71032	-435.77099	1807.02606	-195.50703	-243.79761	1771.35941	-249.8617	-295.70585	1777.49359	-102.40507	-241.4295	1654.76288	-343.03116	-292.94279	1700.39429	-610.6871	-375.28702	1714.59717	-571.34548	-284.92817	1760.91293	-537.95231	-368.58894	2049.19601	-660.26123	-321.84956	2058.84842	-655.00969	-305.81507	2042.97775	-611.85467	-265.97479	1619.30618	4.96181	-282.61986	1609.34967	279.9209	-233.07882	1537.09335	285.53024	-236.79188	1588.96088	599.4978	-278.98754	1604.62311	613.78712	-300.69048	1555.48309	606.47614	-402.57713	1068.90137	-449.29672	-378.1456	1016.66512	40.12866	-429.0517	562.67735	-263.81977	-321.92059	579.17213	-330.40871	-368.57986	565.22659	-169.6069	-382.34062	539.1663	-104.23996	-257.01302	556.21262	-42.90668	-256.25549	547.60929	-192.67862	-295.82191	139.84473	-272.42279	-298.74723	154.50357	-192.64153	-216.675	141.81859	-216.52657	-332.77641	192.87956	-120.33624	-260.13992	185.89693	-76.83338	-296.13992	164.89693	-160.83338	-459.09256	1037.1804	1742.81433	-424.44366	1057.35817	1456.49338	-260.43608	1131.15623	1744.51782	-415.08953	1570.39902	1593.08441	-273.35812	1587.68188	1600.49881	-427.10503	1793.57254	1600.02029	-274.04465	1724.43008	1523.32474	-284.89098	1717.86926	1677.3999	-328.269	1565.89127	1434.45328	-408.14892	1463.75961	1149.59869	-447.61345	1501.54495	1201.24031	-349.93404	1515.89798	1190.6929	-452.71381	1750.82199	1167.05276	-395.18574	1755.62805	1155.59784	-385.74196	1738.08548	1206.18103	-319.11602	1563.8768	1789.05457	-403.10097	1475.68344	2051.8219	-316.46021	1538.71536	2039.65027	-324.05304	1459.79202	2053.19794	-336.9788	1524.24637	2303.67142	-369.49345	1553.21213	2296.44424	-409.21314	1523.29971	2285.25803	-331.92722	1004.88831	1408.04871	-317.66022	1009.70894	1808.43491	-374.57462	455.46124	1449.88846	-274.76225	490.93224	1422.25082	-282.48749	458.39317	1543.09296	-357.54025	448.35476	1770.72815	-244.77373	485.73788	1786.4386	-316.76571	443.78635	1679.13666	-323.91796	130.25069	1417.66937	-294.92989	126.60694	1482.48856	-243.54454	127.87507	1417.9451	-323.148	135.01188	1792.34161	-250.31088	124.81393	1806.30783	-293.8623	124.01327	1732.90314	-234.09456	1146.17973	1526.97571	-320.15427	1514.12796	290.55359
70	28.15	-537.38461	1243.19893	-85.7191	-510.44189	1268.20335	-316.13703	-248.13814	1236.64764	-360.71033	-275.92516	1222.93266	-7.73335	-405.92516	1612.93266	-186.73335	-240.6279	1666.49033	-185.63807	-435.31284	1806.89041	-194.70703	-243.34972	1771.20377	-249.57476	-295.05745	1777.18292	-102.03204	-241.00565	1654.3689	-342.81353	-293.00753	1700.00153	-610.4882	-375.44151	1713.95706	-571.13014	-285.41323	1760.54047	-537.69527	-370.08663	2048.52798	-660.34454	-323.4758	2058.3754	-654.99847	-307.58598	2042.64206	-611.81858	-265.22308	1619.27383	4.53394	-281.83657	1610.57663	279.61603	-232.61518	1538.15201	285.47634	-235.96384	1591.42944	599.13578	-278.10181	1607.02087	613.43933	-299.63051	1558.00888	606.31145	-403.03879	1068.56308	-449.0657	-378.09902	1016.63551	40.44508	-429.59854	562.62798	-263.46918	-322.46426	579.12006	-330.08427	-368.99677	565.15018	-169.22726	-382.63065	539.1444	-103.9245	-257.3131	556.20148	-42.69446	-256.69582	547.58259	-192.44785	-295.94753	139.81482	-272.32124	-298.92818	154.46265	-192.50738	-216.79852	141.85993	-216.39929	-332.8511	192.83003	-120.23184	-260.23403	185.89499	-76.7629	-296.23403	164.89499	-160.7629	-458.87836	1037.15172	1742.91092	-424.39457	1057.38953	1456.66	-260.34315	1131.17332	1744.53186	-414.99443	1570.3952	1593.05664	-273.24627	1587.66937	1600.53238	-427.02953	1793.53973	1599.82819	-273.80924	1724.3895	1523.39523	-284.8893	1717.9808	1677.43484	-328.24005	1565.896	1434.54605	-407.90421	1463.46771	1149.85588	-447.58381	1501.28235	1201.35498	-349.81491	1515.74463	1190.88623	-452.98111	1750.49454	1167.06757	-395.34222	1755.42282	1155.72449	-385.92014	1737.9332	1206.25038	-319.10416	1563.80676	1789.1539	-403.42819	1475.44144	2051.72821	-316.65258	1538.32993	2039.67911	-324.42188	1459.43542	2053.30246	-338.09296	1523.82065	2303.9032	-370.30487	1552.80609	2296.52115	-409.9699	1522.98782	2285.31418	-331.87103	1004.88174	1408.19809	-317.5552	1009.70245	1808.52158	-374.53964	455.51785	1450.01938	-274.76397	490.90778	1422.32712	-282.45407	458.40462	1543.13782	-357.37198	448.33229	1770.83176	-244.39568	485.93147	1786.88339	-316.69523	443.80001	1679.18335	-323.91701	130.24176	1417.72064	-294.9691	126.58713	1482.49191	-243.545	127.88586	1417.94189	-323.22723	134.99523	1792.17346	-250.29797	124.77149	1806.30127	-293.86164	124.03099	1732.94006	-234.06504	1146.22223	1527.08008	-319.68372	1515.46951	290.67728
71	28.167	-537.06524	1243.29063	-85.4715	-510.50911	1268.14316	-315.93674	-248.1637	1236.27762	-360.57716	-275.51754	1222.87903	-7.51468	-405.51754	1612.87903	-186.51468	-240.20929	1666.26694	-185.50941	-434.75018	1806.86737	-194.04009	-242.94613	1771.2204	-249.35247	-294.32764	1776.85089	-101.72502	-240.84469	1654.31854	-342.66571	-292.97827	1699.82071	-610.32814	-375.52124	1713.38654	-571.09882	-285.54993	1760.39017	-537.66071	-371.76323	2047.82776	-660.54192	-325.21412	2058.07892	-654.98482	-309.4046	2042.45728	-611.71898	-264.91339	1619.30283	4.08124	-281.19034	1611.64673	279.25573	-231.89535	1539.1983	285.18108	-235.0264	1593.2077	598.67226	-277.18384	1609.22501	613.03875	-299.0892	1560.14557	606.05083	-403.77193	1068.4137	-449.21558	-378.15449	1016.70891	41.127	-430.07072	562.56184	-262.99	-323.10246	579.07387	-329.67766	-369.28986	565.00996	-168.95102	-382.92873	539.18987	-103.48763	-257.54169	556.19946	-42.45347	-257.18058	547.56866	-192.17918	-296.10867	139.79805	-272.2089	-298.9304	154.4488	-192.37001	-216.91906	141.91188	-216.31186	-332.99023	192.80375	-120.13459	-260.28301	185.89008	-76.69847	-296.28301	164.89008	-160.69847	-458.77586	1037.09145	1742.98706	-424.3779	1057.40234	1456.78528	-260.2393	1131.19835	1744.61609	-414.87442	1570.38559	1593.05298	-273.20988	1587.66769	1600.78186	-427.02812	1793.47473	1599.58893	-273.51374	1724.3074	1523.50754	-284.89096	1718.03894	1677.47314	-328.21026	1565.90347	1434.61761	-407.36839	1463.09113	1150.01907	-447.30434	1500.77072	1201.4476	-349.52862	1515.5545	1191.06918	-453.40939	1749.91409	1166.80298	-395.68378	1755.03418	1155.67566	-386.36208	1737.63885	1206.25504	-319.10761	1563.71902	1789.29138	-403.77857	1475.10681	2051.67557	-317.01115	1538.01102	2039.91943	-324.85859	1459.12674	2053.28705	-338.71483	1523.38882	2303.89236	-371.06915	1552.37259	2296.58905	-410.88058	1522.51587	2285.2034	-331.8515	1004.88716	1408.2605	-317.50011	1009.71649	1808.6087	-374.5565	455.46265	1450.01236	-274.74024	490.90477	1422.34207	-282.4411	458.34679	1543.19336	-357.27608	448.33488	1770.81497	-244.20492	485.94387	1786.93176	-316.6008	443.84354	1679.18243	-323.92952	130.24172	1417.71423	-294.94635	126.54983	1482.45789	-243.52867	127.8669	1417.98508	-323.10722	135.04425	1792.32269	-250.22146	124.79673	1806.33118	-293.83764	124.03128	1732.90924	-234.02462	1146.22292	1527.21863	-319.14585	1516.38397	290.56042
